<svg width="24" height="33" viewBox="0 0 24 33" fill="none" xmlns="http://www.w3.org/2000/svg">
<path d="M5.88823 16.3358L23.7722 29.8103C24.177 30.1155 24.4045 30.5293 24.4045 30.9608C24.4045 31.3924 24.177 31.8062 23.7722 32.1113C23.3673 32.4165 22.8181 32.5879 22.2455 32.5879C21.6729 32.5879 21.1238 32.4165 20.7189 32.1113L1.31267 17.4863C1.11186 17.3354 0.952547 17.1561 0.843844 16.9586C0.735141 16.7612 0.679187 16.5496 0.679187 16.3358C0.679187 16.1221 0.735141 15.9105 0.843844 15.713C0.952547 15.5156 1.11186 15.3363 1.31267 15.1853L20.7189 0.560338C21.1238 0.255207 21.6729 0.083786 22.2455 0.083786C22.8181 0.083786 23.3673 0.255207 23.7722 0.560338C24.177 0.86547 24.4045 1.27932 24.4045 1.71084C24.4045 2.14236 24.177 2.55621 23.7722 2.86134L5.88823 16.3358Z" fill="#EBEDF0"/>
</svg>
